<?xml version="1.0" encoding="UTF-8"?>
<svg width="150px" height="150px" viewBox="0 0 150 150" version="1.1" xmlns="http://www.w3.org/2000/svg" xmlns:xlink="http://www.w3.org/1999/xlink">
    <title>02d</title>
    <g id="Page-1" stroke="none" stroke-width="1" fill="none" fill-rule="evenodd">
        <g id="Artboard" transform="translate(-395.000000, -69.000000)" stroke-width="5.3333332">
            <g id="layer-MC1" transform="translate(149.000000, 80.000000)">
                <path d="M349.666672,61.3333308 C349.666672,43.6599971 335.340004,29.3333308 317.666672,29.3333308 C299.993338,29.3333308 285.666672,43.6599971 285.666672,61.3333308 C285.666672,79.0066629 299.993338,93.3333308 317.666672,93.3333308 C335.340004,93.3333308 349.666672,79.0066629 349.666672,61.3333308" id="path73" stroke="#FFB400" fill="#FFD73C" fill-rule="nonzero" transform="translate(317.666671, 61.333330) scale(-1, 1) rotate(-180.000000) translate(-317.666671, -61.333330) "></path>
                <line x1="363" y1="61.33333" x2="376.333333" y2="61.33333" id="path74" stroke="#FFB400" stroke-linecap="round" transform="translate(369.666667, 61.333330) scale(-1, 1) rotate(-180.000000) translate(-369.666667, -61.333330) "></line>
                <line x1="259" y1="61.33333" x2="272.333333" y2="61.33333" id="path75" stroke="#FFB400" stroke-linecap="round" transform="translate(265.666667, 61.333330) scale(-1, 1) rotate(-180.000000) translate(-265.666667, -61.333330) "></line>
                <line x1="317.66667" y1="16" x2="317.66667" y2="2.666667" id="path76" stroke="#FFB400" stroke-linecap="round" transform="translate(317.666670, 9.333334) scale(-1, 1) rotate(-180.000000) translate(-317.666670, -9.333334) "></line>
                <line x1="356.9264" y1="32.0000035" x2="368.473066" y2="38.66667" id="path77" stroke="#FFB400" stroke-linecap="round" transform="translate(362.699733, 35.333337) scale(-1, 1) rotate(-180.000000) translate(-362.699733, -35.333337) "></line>
                <line x1="266.85973" y1="84.0000035" x2="278.406396" y2="90.66667" id="path78" stroke="#FFB400" stroke-linecap="round" transform="translate(272.633063, 87.333337) scale(-1, 1) rotate(-180.000000) translate(-272.633063, -87.333337) "></line>
                <line x1="288.33333" y1="22.0730664" x2="294.999997" y2="10.5264" id="path79" stroke="#FFB400" stroke-linecap="round" transform="translate(291.666663, 16.299733) scale(-1, 1) rotate(-180.000000) translate(-291.666663, -16.299733) "></line>
                <line x1="340.33333" y1="10.5269336" x2="346.999997" y2="22.0736" id="path80" stroke="#FFB400" stroke-linecap="round" transform="translate(343.666663, 16.300267) scale(-1, 1) rotate(-180.000000) translate(-343.666663, -16.300267) "></line>
                <line x1="288.33333" y1="100.593604" x2="294.999997" y2="112.14027" id="path81" stroke="#FFB400" stroke-linecap="round" transform="translate(291.666663, 106.366937) scale(-1, 1) rotate(-180.000000) translate(-291.666663, -106.366937) "></line>
                <line x1="266.85973" y1="38.6666665" x2="278.406396" y2="32" id="path82" stroke="#FFB400" stroke-linecap="round" transform="translate(272.633063, 35.333333) scale(-1, 1) rotate(-180.000000) translate(-272.633063, -35.333333) "></line>
                <path d="M368.33333,106.66667 C368.24933,106.66667 368.17333,106.644003 368.08933,106.64267 C368.238663,107.51867 368.33333,108.41467 368.33333,109.333336 C368.33333,118.169336 361.16933,125.333336 352.33333,125.333336 C344.917331,125.333336 338.697331,120.280003 336.883997,113.43467 C335.531997,114.196003 333.994664,114.66667 332.333331,114.66667 C327.178664,114.66667 322.999998,110.488003 322.999998,105.333337 C322.999998,104.589337 323.109331,103.87467 323.274664,103.180003 C321.942664,103.689337 320.510665,104.000004 318.999998,104.000004 C312.371998,104.000004 306.999998,98.6280033 306.999998,92.0000038 C306.999998,85.3720037 312.371998,80.0000038 318.999998,80.0000038 L368.33333,80.0000038 C375.69733,80.0000038 381.666663,85.969337 381.666663,93.3333368 C381.666663,100.697337 375.69733,106.66667 368.33333,106.66667" id="path83" stroke="#8C8C8C" fill="#FFFFFF" fill-rule="nonzero" stroke-linecap="round" stroke-linejoin="round" transform="translate(344.333331, 102.666670) scale(-1, 1) rotate(-180.000000) translate(-344.333331, -102.666670) "></path>
            </g>
        </g>
    </g>
</svg>