<?xml version="1.0" encoding="UTF-8"?>
<svg width="150px" height="150px" viewBox="0 0 150 150" version="1.1" xmlns="http://www.w3.org/2000/svg" xmlns:xlink="http://www.w3.org/1999/xlink">
    <title>02n</title>
    <g id="Page-1" stroke="none" stroke-width="1" fill="none" fill-rule="evenodd" stroke-linecap="round" stroke-linejoin="round">
        <g id="Artboard" transform="translate(-395.000000, -517.000000)" fill-rule="nonzero" stroke-width="5.3333332">
            <g id="layer-MC1" transform="translate(149.000000, 80.000000)">
                <path d="M341.82613,474.782796 C319.858131,481.937463 307.835464,505.590796 314.972797,527.613462 C319.603464,541.897461 331.171464,551.942795 344.715463,555.316128 C333.127464,557.924128 320.599464,556.650794 309.190131,550.824128 C283.192798,537.545462 272.856798,505.654796 286.103465,479.594796 C299.348798,453.533464 331.163464,443.172131 357.160796,456.449464 C368.568796,462.277463 376.959462,471.689463 381.666129,482.618796 C370.983463,473.618796 356.076796,470.141463 341.82613,474.782796" id="path84" stroke="#FFB400" fill="#FFD73C" transform="translate(330.999881, 503.636333) scale(-1, 1) rotate(-180.000000) translate(-330.999881, -503.636333) "></path>
                <path d="M320.33333,554.66667 C320.24933,554.66667 320.17333,554.644003 320.08933,554.64267 C320.238663,555.51867 320.33333,556.41467 320.33333,557.333336 C320.33333,566.169336 313.16933,573.333336 304.33333,573.333336 C296.917331,573.333336 290.697331,568.280003 288.883997,561.43467 C287.531997,562.196003 285.994664,562.66667 284.333331,562.66667 C279.178664,562.66667 274.999998,558.488003 274.999998,553.333336 C274.999998,552.589337 275.109331,551.87467 275.274664,551.180003 C273.942664,551.689337 272.510665,552.000004 270.999998,552.000004 C264.371998,552.000004 258.999998,546.628003 258.999998,540.000004 C258.999998,533.372004 264.371998,528.000004 270.999998,528.000004 L320.33333,528.000004 C327.69733,528.000004 333.666663,533.969337 333.666663,541.333337 C333.666663,548.697337 327.69733,554.66667 320.33333,554.66667" id="path85" stroke="#8C8C8C" fill="#FFFFFF" transform="translate(296.333331, 550.666670) scale(-1, 1) rotate(-180.000000) translate(-296.333331, -550.666670) "></path>
            </g>
        </g>
    </g>
</svg>