<?xml version="1.0" encoding="UTF-8"?>
<svg width="150px" height="150px" viewBox="0 0 150 150" version="1.1" xmlns="http://www.w3.org/2000/svg" xmlns:xlink="http://www.w3.org/1999/xlink">
    <title>03n</title>
    <g id="Page-1" stroke="none" stroke-width="1" fill="none" fill-rule="evenodd" stroke-linecap="round" stroke-linejoin="round">
        <g id="Artboard" transform="translate(-651.000000, -517.000000)" fill-rule="nonzero" stroke-width="5.3333332">
            <g id="layer-MC1" transform="translate(149.000000, 80.000000)">
                <path d="M621.55253,465.26365 C608.25653,469.594316 600.979197,483.910316 605.299197,497.239649 C608.101864,505.886315 615.103197,511.966315 623.30053,514.007648 C616.287197,515.584982 608.70453,514.815648 601.799197,511.288982 C586.064531,503.251649 579.807198,483.948982 587.825864,468.17565 C595.843197,452.402317 615.099197,446.130317 630.833863,454.16765 C637.739196,457.694316 642.817863,463.39165 645.667196,470.006316 C639.20053,464.558316 630.177863,462.454316 621.55253,465.26365" id="path138" stroke="#FFB400" fill="#FFD73C" transform="translate(615.000222, 482.727425) scale(-1, 1) rotate(-180.000000) translate(-615.000222, -482.727425) "></path>
                <path d="M611.000003,541.333331 C609.890667,541.333331 608.808,541.231996 607.738667,541.086663 C608.122667,542.886663 608.333333,544.751996 608.333333,546.666663 C608.333333,561.394662 596.394667,573.333331 581.666667,573.333331 C567.337334,573.333331 555.681335,562.022662 555.060001,547.847996 C552.220001,550.419996 548.466668,551.999996 544.333335,551.999996 C535.497335,551.999996 528.333335,544.835996 528.333335,535.999996 C528.333335,533.986663 528.721335,532.066663 529.400002,530.291997 C528.194669,530.535997 526.945335,530.666663 525.666669,530.666663 C515.357336,530.666663 507.000003,522.30933 507.000003,511.999997 C507.000003,501.690664 515.357336,493.333331 525.666669,493.333331 L611.000003,493.333331 C624.254666,493.333331 635.000003,504.078664 635.000003,517.333331 C635.000003,530.587997 624.254666,541.333331 611.000003,541.333331" id="path139" stroke="#8C8C8C" fill="#FFFFFF" transform="translate(571.000001, 533.333330) scale(-1, 1) rotate(-180.000000) translate(-571.000001, -533.333330) "></path>
            </g>
        </g>
    </g>
</svg>