<?xml version="1.0" encoding="UTF-8"?>
<svg width="150px" height="150px" viewBox="0 0 150 150" version="1.1" xmlns="http://www.w3.org/2000/svg" xmlns:xlink="http://www.w3.org/1999/xlink">
    <title>04</title>
    <g id="Page-1" stroke="none" stroke-width="1" fill="none" fill-rule="evenodd" stroke-linecap="round" stroke-linejoin="round">
        <g id="Artboard" transform="translate(-1419.000000, -517.000000)" fill="#FFFFFF" fill-rule="nonzero" stroke="#8C8C8C" stroke-width="5.3333332">
            <g id="layer-MC1" transform="translate(149.000000, 80.000000)">
                <path d="M1384.3333,541.333331 C1383.22397,541.333331 1382.1413,541.231996 1381.07197,541.086663 C1381.45597,542.886663 1381.66663,544.751996 1381.66663,546.666663 C1381.66663,561.394662 1369.72797,573.333331 1354.99997,573.333331 C1340.67063,573.333331 1329.01463,562.022662 1328.3933,547.847996 C1325.5533,550.419996 1321.79997,551.999996 1317.66664,551.999996 C1308.83064,551.999996 1301.66664,544.835996 1301.66664,535.999996 C1301.66664,533.986663 1302.05464,532.066663 1302.7333,530.291997 C1301.52797,530.535997 1300.27864,530.666663 1298.99997,530.666663 C1288.69064,530.666663 1280.3333,522.30933 1280.3333,511.999997 C1280.3333,501.690664 1288.69064,493.333331 1298.99997,493.333331 L1384.3333,493.333331 C1397.58797,493.333331 1408.3333,504.078664 1408.3333,517.333331 C1408.3333,530.587997 1397.58797,541.333331 1384.3333,541.333331" id="path49" transform="translate(1344.333301, 533.333330) scale(-1, 1) rotate(-180.000000) translate(-1344.333301, -533.333330) "></path>
            </g>
        </g>
    </g>
</svg>