<?xml version="1.0" encoding="UTF-8"?>
<svg width="150px" height="150px" viewBox="0 0 150 150" version="1.1" xmlns="http://www.w3.org/2000/svg" xmlns:xlink="http://www.w3.org/1999/xlink">
    <title>04d</title>
    <g id="Page-1" stroke="none" stroke-width="1" fill="none" fill-rule="evenodd" stroke-linecap="round" stroke-linejoin="round">
        <g id="Artboard" transform="translate(-907.000000, -69.000000)" fill="#FFFFFF" fill-rule="nonzero" stroke="#8C8C8C" stroke-width="5.3333332">
            <g id="layer-MC1" transform="translate(149.000000, 80.000000)">
                <path d="M893.7588,23.896268 C895.392133,27.1389346 896.33347,30.7896012 896.33347,34.666935 C896.33347,47.9229341 885.588134,58.666935 872.33347,58.666935 C871.224134,58.666935 870.141467,58.5656005 869.072134,58.4202671 C869.454801,60.2216004 869.666801,62.0856004 869.666801,64.000267 C869.666801,78.7282666 857.726801,90.666935 843.000135,90.666935 C828.670802,90.666935 817.014802,79.3576 816.392135,65.1816003 C813.553469,67.7536002 809.800135,69.3336002 805.666802,69.3336002 C796.829469,69.3336002 789.666803,62.1709337 789.666803,53.3336006 C789.666803,51.3202673 790.054803,49.4002674 790.733469,47.6256007 C789.528136,47.8709341 788.278803,48.0002674 787.000136,48.0002674 C776.690803,48.0002674 768.33347,39.6429343 768.33347,29.3336012 C768.33347,19.0242681 776.690803,10.666935 787.000136,10.666935 L789.516136,10.666935" id="path86" transform="translate(832.333468, 50.666934) scale(-1, 1) rotate(-180.000000) translate(-832.333468, -50.666934) "></path>
                <path d="M877.6667,93.333333 C877.604033,93.333333 877.544033,93.3239997 877.481367,93.3239997 C877.5907,94.2026663 877.6667,95.0919996 877.6667,96.0000006 C877.6667,107.782666 868.116034,117.333332 856.333367,117.333332 C845.390701,117.333332 836.385368,109.090666 835.156034,98.4786662 C832.894701,100.239999 830.088035,101.333333 827.000035,101.333333 C819.636035,101.333333 813.666702,95.3639996 813.666702,88.0000006 C813.666702,87.9159998 813.689368,87.8399998 813.690702,87.7559998 C812.814702,87.9053331 811.918702,88.0000006 811.000035,88.0000006 C802.164035,88.0000006 795.000035,80.836 795.000035,72.0000006 C795.000035,63.1640004 802.164035,56.0000006 811.000035,56.0000006 L877.6667,56.0000006 C887.976033,56.0000006 896.333366,64.3573337 896.333366,74.6666668 C896.333366,84.9759999 887.976033,93.333333 877.6667,93.333333" id="path87" transform="translate(845.666701, 86.666666) scale(-1, 1) rotate(-180.000000) translate(-845.666701, -86.666666) "></path>
            </g>
        </g>
    </g>
</svg>