<?xml version="1.0" encoding="UTF-8"?>
<svg width="150px" height="150px" viewBox="0 0 150 150" version="1.1" xmlns="http://www.w3.org/2000/svg" xmlns:xlink="http://www.w3.org/1999/xlink">
    <title>09</title>
    <g id="Page-1" stroke="none" stroke-width="1" fill="none" fill-rule="evenodd" stroke-linecap="round" stroke-linejoin="round">
        <g id="Artboard" transform="translate(-139.000000, -293.000000)" stroke-width="5.3333332">
            <g id="layer-MC1" transform="translate(149.000000, 80.000000)">
                <path d="M104.333333,273.333331 C103.223997,273.333331 102.14133,273.231996 101.071997,273.086663 C101.455997,274.886663 101.666663,276.751996 101.666663,278.666663 C101.666663,293.394662 89.727997,305.333331 74.9999974,305.333331 C60.6706644,305.333331 49.0146647,294.022662 48.3933314,279.847996 C45.5533315,282.419996 41.7999982,283.999996 37.666665,283.999996 C28.8306652,283.999996 21.6666654,276.835996 21.6666654,267.999996 C21.6666654,265.986663 22.0546654,264.066663 22.733332,262.291997 C21.5279987,262.535997 20.2786654,262.666663 18.9999988,262.666663 C8.69066572,262.666663 0.3333326,254.30933 0.3333326,243.999997 C0.3333326,233.690664 8.69066572,225.333331 18.9999988,225.333331 L104.333333,225.333331 C117.587996,225.333331 128.333333,236.078664 128.333333,249.333331 C128.333333,262.587997 117.587996,273.333331 104.333333,273.333331" id="path18" stroke="#8C8C8C" fill="#FFFFFF" fill-rule="nonzero" transform="translate(64.333331, 265.333330) scale(-1, 1) rotate(-180.000000) translate(-64.333331, -265.333330) "></path>
                <line x1="85.66667" y1="334.66667" x2="77.6666702" y2="318.66667" id="path19" stroke="#32BEE6" transform="translate(81.666670, 326.666670) scale(-1, 1) rotate(-180.000000) translate(-81.666670, -326.666670) "></line>
                <line x1="37.66667" y1="334.66667" x2="29.6666702" y2="318.66667" id="path20" stroke="#32BEE6" transform="translate(33.666670, 326.666670) scale(-1, 1) rotate(-180.000000) translate(-33.666670, -326.666670) "></line>
                <line x1="61.66667" y1="334.66667" x2="53.6666702" y2="318.66667" id="path21" stroke="#32BEE6" transform="translate(57.666670, 326.666670) scale(-1, 1) rotate(-180.000000) translate(-57.666670, -326.666670) "></line>
            </g>
        </g>
    </g>
</svg>