<?xml version="1.0" encoding="UTF-8"?>
<svg width="150px" height="150px" viewBox="0 0 150 150" version="1.1" xmlns="http://www.w3.org/2000/svg" xmlns:xlink="http://www.w3.org/1999/xlink">
    <title>09d</title>
    <g id="Page-1" stroke="none" stroke-width="1" fill="none" fill-rule="evenodd" stroke-linejoin="round">
        <g id="Artboard" transform="translate(-1163.000000, -69.000000)" stroke-width="5.3333332">
            <g id="layer-MC1" transform="translate(149.000000, 80.000000)">
                <path d="M1043,45.33333 C1043,30.6053304 1054.93867,18.666664 1069.66667,18.666664 C1084.39467,18.666664 1096.33333,30.6053304 1096.33333,45.33333 C1096.33333,60.0613296 1084.39467,71.999996 1069.66667,71.999996 C1054.93867,71.999996 1043,60.0613296 1043,45.33333" id="path97" stroke="#FFB400" fill="#FFD73C" fill-rule="nonzero" transform="translate(1069.666666, 45.333330) scale(-1, 1) rotate(-180.000000) translate(-1069.666666, -45.333330) "></path>
                <line x1="1032.3333" y1="45.33333" x2="1024.3333" y2="45.33333" id="path98" stroke="#FFB400" stroke-linecap="round" transform="translate(1028.333300, 45.333330) scale(-1, 1) rotate(-180.000000) translate(-1028.333300, -45.333330) "></line>
                <line x1="1069.6667" y1="1.99999988e-07" x2="1069.6667" y2="8" id="path99" stroke="#FFB400" stroke-linecap="round" transform="translate(1069.666700, 4.000000) scale(-1, 1) rotate(-180.000000) translate(-1069.666700, -4.000000) "></line>
                <line x1="1037.3349" y1="67.9999999" x2="1030.4069" y2="64" id="path100" stroke="#FFB400" stroke-linecap="round" transform="translate(1033.870900, 66.000000) scale(-1, 1) rotate(-180.000000) translate(-1033.870900, -66.000000) "></line>
                <line x1="1108.9264" y1="26.6666699" x2="1101.9984" y2="22.66667" id="path101" stroke="#FFB400" stroke-linecap="round" transform="translate(1105.462400, 24.666670) scale(-1, 1) rotate(-180.000000) translate(-1105.462400, -24.666670) "></line>
                <line x1="1051" y1="6.07360017" x2="1047" y2="13.0016" id="path102" stroke="#FFB400" stroke-linecap="round" transform="translate(1049.000000, 9.537600) scale(-1, 1) rotate(-180.000000) translate(-1049.000000, -9.537600) "></line>
                <line x1="1092.3333" y1="13.0015998" x2="1088.3333" y2="6.0736" id="path103" stroke="#FFB400" stroke-linecap="round" transform="translate(1090.333300, 9.537600) scale(-1, 1) rotate(-180.000000) translate(-1090.333300, -9.537600) "></line>
                <line x1="1037.3349" y1="22.6666701" x2="1030.4069" y2="26.66667" id="path104" stroke="#FFB400" stroke-linecap="round" transform="translate(1033.870900, 24.666670) scale(-1, 1) rotate(-180.000000) translate(-1033.870900, -24.666670) "></line>
                <path d="M1133.6667,77.333333 C1133.60403,77.333333 1133.54403,77.3239997 1133.48137,77.3239997 C1133.5907,78.2026663 1133.6667,79.0919996 1133.6667,80.0000006 C1133.6667,91.782666 1124.11603,101.333332 1112.33337,101.333332 C1101.3907,101.333332 1092.38537,93.0906659 1091.15603,82.4786662 C1088.8947,84.2399995 1086.08803,85.3333328 1083.00004,85.3333328 C1075.63603,85.3333328 1069.6667,79.3639996 1069.6667,72.0000006 C1069.6667,71.9159998 1069.68937,71.8399998 1069.6907,71.7559998 C1068.8147,71.9053331 1067.9187,72.0000006 1067.00004,72.0000006 C1058.16404,72.0000006 1051.00004,64.836 1051.00004,56.0000006 C1051.00004,47.1640004 1058.16404,40.0000006 1067.00004,40.0000006 L1133.6667,40.0000006 C1143.97603,40.0000006 1152.33337,48.3573337 1152.33337,58.6666668 C1152.33337,68.9759999 1143.97603,77.333333 1133.6667,77.333333" id="path105" stroke="#8C8C8C" fill="#FFFFFF" fill-rule="nonzero" stroke-linecap="round" transform="translate(1101.666701, 70.666666) scale(-1, 1) rotate(-180.000000) translate(-1101.666701, -70.666666) "></path>
                <line x1="1096.3333" y1="128" x2="1088.3333" y2="112" id="path106" stroke="#32BEE6" stroke-linecap="round" transform="translate(1092.333300, 120.000000) scale(-1, 1) rotate(-180.000000) translate(-1092.333300, -120.000000) "></line>
            </g>
        </g>
    </g>
</svg>