<?xml version="1.0" encoding="UTF-8"?>
<svg width="150px" height="150px" viewBox="0 0 150 150" version="1.1" xmlns="http://www.w3.org/2000/svg" xmlns:xlink="http://www.w3.org/1999/xlink">
    <title>10</title>
    <g id="Page-1" stroke="none" stroke-width="1" fill="none" fill-rule="evenodd" stroke-linecap="round" stroke-linejoin="round">
        <g id="Artboard" transform="translate(-395.000000, -293.000000)" stroke-width="5.3333332">
            <g id="layer-MC1" transform="translate(149.000000, 80.000000)">
                <path d="M360.333333,272.000001 C359.223997,272.000001 358.14133,271.898666 357.071997,271.753333 C357.455997,273.553333 357.666663,275.418666 357.666663,277.333333 C357.666663,292.061332 345.727997,304.000001 330.999997,304.000001 C316.670664,304.000001 305.014665,292.689332 304.393331,278.514666 C301.553331,281.086666 297.799998,282.666666 293.666665,282.666666 C284.830665,282.666666 277.666665,275.502666 277.666665,266.666666 C277.666665,264.653333 278.054665,262.733333 278.733332,260.958667 C277.527999,261.202667 276.278665,261.333333 274.999999,261.333333 C264.690666,261.333333 256.333333,252.976 256.333333,242.666667 C256.333333,232.357334 264.690666,224.000001 274.999999,224.000001 L360.333333,224.000001 C373.587996,224.000001 384.333333,234.745334 384.333333,248.000001 C384.333333,261.254667 373.587996,272.000001 360.333333,272.000001" id="path22" stroke="#8C8C8C" fill="#FFFFFF" fill-rule="nonzero" transform="translate(320.333331, 264.000000) scale(-1, 1) rotate(-180.000000) translate(-320.333331, -264.000000) "></path>
                <line x1="333.66667" y1="352" x2="325.66667" y2="336" id="path23" stroke="#32BEE6" transform="translate(329.666670, 344.000000) scale(-1, 1) rotate(-180.000000) translate(-329.666670, -344.000000) "></line>
                <line x1="355" y1="330.66667" x2="347" y2="314.66667" id="path24" stroke="#32BEE6" transform="translate(351.000000, 322.666670) scale(-1, 1) rotate(-180.000000) translate(-351.000000, -322.666670) "></line>
                <line x1="309.66667" y1="352" x2="301.66667" y2="336" id="path25" stroke="#32BEE6" transform="translate(305.666670, 344.000000) scale(-1, 1) rotate(-180.000000) translate(-305.666670, -344.000000) "></line>
                <line x1="331" y1="330.66667" x2="323" y2="314.66667" id="path26" stroke="#32BEE6" transform="translate(327.000000, 322.666670) scale(-1, 1) rotate(-180.000000) translate(-327.000000, -322.666670) "></line>
                <line x1="285.66667" y1="352" x2="277.66667" y2="336" id="path27" stroke="#32BEE6" transform="translate(281.666670, 344.000000) scale(-1, 1) rotate(-180.000000) translate(-281.666670, -344.000000) "></line>
                <line x1="307" y1="330.66667" x2="299" y2="314.66667" id="path28" stroke="#32BEE6" transform="translate(303.000000, 322.666670) scale(-1, 1) rotate(-180.000000) translate(-303.000000, -322.666670) "></line>
                <line x1="283" y1="330.66667" x2="275" y2="314.66667" id="path29" stroke="#32BEE6" transform="translate(279.000000, 322.666670) scale(-1, 1) rotate(-180.000000) translate(-279.000000, -322.666670) "></line>
            </g>
        </g>
    </g>
</svg>