<?xml version="1.0" encoding="UTF-8"?>
<svg width="150px" height="150px" viewBox="0 0 150 150" version="1.1" xmlns="http://www.w3.org/2000/svg" xmlns:xlink="http://www.w3.org/1999/xlink">
    <title>10d</title>
    <g id="Page-1" stroke="none" stroke-width="1" fill="none" fill-rule="evenodd" stroke-linecap="round" stroke-linejoin="round">
        <g id="Artboard" transform="translate(-907.000000, -517.000000)" stroke-width="5.3333332">
            <g id="layer-MC1" transform="translate(149.000000, 80.000000)">
                <path d="M872.2192,462.59698 C858.9232,466.927646 851.645867,481.243646 855.965867,494.572979 C858.768534,503.219645 865.769867,509.299645 873.9672,511.340978 C866.953867,512.918312 859.3712,512.148978 852.465867,508.622312 C836.731201,500.584979 830.473868,481.282312 838.492534,465.50898 C846.509867,449.735647 865.765867,443.463647 881.500533,451.50098 C888.405866,455.027646 893.484533,460.72498 896.333866,467.339646 C889.8672,461.891646 880.844533,459.787646 872.2192,462.59698" id="path133" stroke="#FFB400" fill="#FFD73C" fill-rule="nonzero" transform="translate(865.666892, 480.060755) scale(-1, 1) rotate(-180.000000) translate(-865.666892, -480.060755) "></path>
                <path d="M851,525.333333 C850.937333,525.333333 850.877333,525.324 850.814667,525.324 C850.924,526.202666 851,527.092 851,528.000001 C851,539.782666 841.449334,549.333332 829.666667,549.333332 C818.724001,549.333332 809.718668,541.090666 808.489334,530.478666 C806.228001,532.239999 803.421335,533.333333 800.333335,533.333333 C792.969335,533.333333 787.000002,527.364 787.000002,520.000001 C787.000002,519.916 787.022668,519.84 787.024002,519.756 C786.148002,519.905333 785.252002,520.000001 784.333335,520.000001 C775.497335,520.000001 768.333335,512.836 768.333335,504.000001 C768.333335,495.164 775.497335,488.000001 784.333335,488.000001 L851,488.000001 C861.309333,488.000001 869.666666,496.357334 869.666666,506.666667 C869.666666,516.976 861.309333,525.333333 851,525.333333" id="path134" stroke="#8C8C8C" fill="#FFFFFF" fill-rule="nonzero" transform="translate(819.000001, 518.666667) scale(-1, 1) rotate(-180.000000) translate(-819.000001, -518.666667) "></path>
                <line x1="837.66667" y1="576" x2="829.66667" y2="560" id="path135" stroke="#32BEE6" transform="translate(833.666670, 568.000000) scale(-1, 1) rotate(-180.000000) translate(-833.666670, -568.000000) "></line>
                <line x1="813.66667" y1="576" x2="805.66667" y2="560" id="path136" stroke="#32BEE6" transform="translate(809.666670, 568.000000) scale(-1, 1) rotate(-180.000000) translate(-809.666670, -568.000000) "></line>
                <line x1="789.66667" y1="576" x2="781.66667" y2="560" id="path137" stroke="#32BEE6" transform="translate(785.666670, 568.000000) scale(-1, 1) rotate(-180.000000) translate(-785.666670, -568.000000) "></line>
            </g>
        </g>
    </g>
</svg>