<?xml version="1.0" encoding="UTF-8"?>
<svg width="150px" height="150px" viewBox="0 0 150 150" version="1.1" xmlns="http://www.w3.org/2000/svg" xmlns:xlink="http://www.w3.org/1999/xlink">
    <title>13</title>
    <g id="Page-1" stroke="none" stroke-width="1" fill="none" fill-rule="evenodd" stroke-linecap="round" stroke-linejoin="round">
        <g id="Artboard" transform="translate(-1163.000000, -293.000000)" stroke-width="5.3333332">
            <g id="layer-MC1" transform="translate(149.000000, 80.000000)">
                <path d="M1128.3333,272.000001 C1127.22397,272.000001 1126.1413,271.898666 1125.07197,271.753333 C1125.45597,273.553333 1125.66663,275.418666 1125.66663,277.333333 C1125.66663,292.061332 1113.72797,304.000001 1098.99997,304.000001 C1084.67063,304.000001 1073.01463,292.689332 1072.3933,278.514666 C1069.5533,281.086666 1065.79997,282.666666 1061.66664,282.666666 C1052.83064,282.666666 1045.66664,275.502666 1045.66664,266.666666 C1045.66664,264.653333 1046.05464,262.733333 1046.7333,260.958667 C1045.52797,261.202667 1044.27864,261.333333 1042.99997,261.333333 C1032.69064,261.333333 1024.3333,252.976 1024.3333,242.666667 C1024.3333,232.357334 1032.69064,224.000001 1042.99997,224.000001 L1128.3333,224.000001 C1141.58797,224.000001 1152.3333,234.745334 1152.3333,248.000001 C1152.3333,261.254667 1141.58797,272.000001 1128.3333,272.000001" id="path50" stroke="#8C8C8C" fill="#FFFFFF" fill-rule="nonzero" transform="translate(1088.333301, 264.000000) scale(-1, 1) rotate(-180.000000) translate(-1088.333301, -264.000000) "></path>
                <line x1="1059" y1="333.333336" x2="1059" y2="314.66667" id="path51" stroke="#CCCCCC" transform="translate(1059.000000, 324.000003) scale(-1, 1) rotate(-180.000000) translate(-1059.000000, -324.000003) "></line>
                <line x1="1051" y1="329.333336" x2="1067" y2="318.66667" id="path52" stroke="#CCCCCC" transform="translate(1059.000000, 324.000003) scale(-1, 1) rotate(-180.000000) translate(-1059.000000, -324.000003) "></line>
                <line x1="1051" y1="318.666664" x2="1067" y2="329.33333" id="path53" stroke="#CCCCCC" transform="translate(1059.000000, 323.999997) scale(-1, 1) rotate(-180.000000) translate(-1059.000000, -323.999997) "></line>
                <line x1="1085.6667" y1="351.999996" x2="1085.6667" y2="333.33333" id="path54" stroke="#CCCCCC" transform="translate(1085.666700, 342.666663) scale(-1, 1) rotate(-180.000000) translate(-1085.666700, -342.666663) "></line>
                <line x1="1077.6667" y1="347.999996" x2="1093.6667" y2="337.33333" id="path55" stroke="#CCCCCC" transform="translate(1085.666700, 342.666663) scale(-1, 1) rotate(-180.000000) translate(-1085.666700, -342.666663) "></line>
                <line x1="1077.6667" y1="337.333334" x2="1093.6667" y2="348" id="path56" stroke="#CCCCCC" transform="translate(1085.666700, 342.666667) scale(-1, 1) rotate(-180.000000) translate(-1085.666700, -342.666667) "></line>
                <line x1="1112.3333" y1="333.333336" x2="1112.3333" y2="314.66667" id="path57" stroke="#CCCCCC" transform="translate(1112.333300, 324.000003) scale(-1, 1) rotate(-180.000000) translate(-1112.333300, -324.000003) "></line>
                <line x1="1104.3333" y1="329.333336" x2="1120.3333" y2="318.66667" id="path58" stroke="#CCCCCC" transform="translate(1112.333300, 324.000003) scale(-1, 1) rotate(-180.000000) translate(-1112.333300, -324.000003) "></line>
                <line x1="1104.3333" y1="318.666664" x2="1120.3333" y2="329.33333" id="path59" stroke="#CCCCCC" transform="translate(1112.333300, 323.999997) scale(-1, 1) rotate(-180.000000) translate(-1112.333300, -323.999997) "></line>
            </g>
        </g>
    </g>
</svg>