<?xml version="1.0" encoding="UTF-8"?>
<svg width="150px" height="150px" viewBox="0 0 150 150" version="1.1" xmlns="http://www.w3.org/2000/svg" xmlns:xlink="http://www.w3.org/1999/xlink">
    <title>13d</title>
    <g id="Page-1" stroke="none" stroke-width="1" fill="none" fill-rule="evenodd" stroke-linejoin="round">
        <g id="Artboard" transform="translate(-907.000000, -293.000000)" stroke-width="5.3333332">
            <g id="layer-MC1" transform="translate(149.000000, 80.000000)">
                <path d="M787,269.33333 C787,254.60533 798.938666,242.666664 813.666666,242.666664 C828.394666,242.666664 840.333332,254.60533 840.333332,269.33333 C840.333332,284.06133 828.394666,295.999996 813.666666,295.999996 C798.938666,295.999996 787,284.06133 787,269.33333" id="path140" stroke="#FFB400" fill="#FFD73C" fill-rule="nonzero" transform="translate(813.666666, 269.333330) scale(-1, 1) rotate(-180.000000) translate(-813.666666, -269.333330) "></path>
                <line x1="776.33333" y1="269.33333" x2="768.33333" y2="269.33333" id="path141" stroke="#FFB400" stroke-linecap="round" transform="translate(772.333330, 269.333330) scale(-1, 1) rotate(-180.000000) translate(-772.333330, -269.333330) "></line>
                <line x1="813.66667" y1="224" x2="813.66667" y2="232" id="path142" stroke="#FFB400" stroke-linecap="round" transform="translate(813.666670, 228.000000) scale(-1, 1) rotate(-180.000000) translate(-813.666670, -228.000000) "></line>
                <line x1="781.33493" y1="292" x2="774.40693" y2="288" id="path143" stroke="#FFB400" stroke-linecap="round" transform="translate(777.870930, 290.000000) scale(-1, 1) rotate(-180.000000) translate(-777.870930, -290.000000) "></line>
                <line x1="852.9264" y1="250.66667" x2="845.9984" y2="246.66667" id="path144" stroke="#FFB400" stroke-linecap="round" transform="translate(849.462400, 248.666670) scale(-1, 1) rotate(-180.000000) translate(-849.462400, -248.666670) "></line>
                <line x1="795" y1="230.0736" x2="791" y2="237.0016" id="path145" stroke="#FFB400" stroke-linecap="round" transform="translate(793.000000, 233.537600) scale(-1, 1) rotate(-180.000000) translate(-793.000000, -233.537600) "></line>
                <line x1="836.33333" y1="237.0016" x2="832.33333" y2="230.0736" id="path146" stroke="#FFB400" stroke-linecap="round" transform="translate(834.333330, 233.537600) scale(-1, 1) rotate(-180.000000) translate(-834.333330, -233.537600) "></line>
                <line x1="781.33493" y1="246.66667" x2="774.40693" y2="250.66667" id="path147" stroke="#FFB400" stroke-linecap="round" transform="translate(777.870930, 248.666670) scale(-1, 1) rotate(-180.000000) translate(-777.870930, -248.666670) "></line>
                <path d="M877.6667,301.333333 C877.604033,301.333333 877.544033,301.324 877.481367,301.324 C877.5907,302.202666 877.6667,303.092 877.6667,304.000001 C877.6667,315.782666 868.116034,325.333332 856.333367,325.333332 C845.390701,325.333332 836.385368,317.090666 835.156034,306.478666 C832.894701,308.239999 830.088035,309.333333 827.000035,309.333333 C819.636035,309.333333 813.666702,303.364 813.666702,296.000001 C813.666702,295.916 813.689368,295.84 813.690702,295.756 C812.814702,295.905333 811.918702,296.000001 811.000035,296.000001 C802.164035,296.000001 795.000035,288.836 795.000035,280.000001 C795.000035,271.164 802.164035,264.000001 811.000035,264.000001 L877.6667,264.000001 C887.976033,264.000001 896.333366,272.357334 896.333366,282.666667 C896.333366,292.976 887.976033,301.333333 877.6667,301.333333" id="path148" stroke="#8C8C8C" fill="#FFFFFF" fill-rule="nonzero" stroke-linecap="round" transform="translate(845.666701, 294.666667) scale(-1, 1) rotate(-180.000000) translate(-845.666701, -294.666667) "></path>
                <line x1="827" y1="351.999996" x2="827" y2="333.33333" id="path149" stroke="#CCCCCC" stroke-linecap="round" transform="translate(827.000000, 342.666663) scale(-1, 1) rotate(-180.000000) translate(-827.000000, -342.666663) "></line>
                <line x1="819" y1="347.999996" x2="835" y2="337.33333" id="path150" stroke="#CCCCCC" stroke-linecap="round" transform="translate(827.000000, 342.666663) scale(-1, 1) rotate(-180.000000) translate(-827.000000, -342.666663) "></line>
                <line x1="819" y1="337.333334" x2="835" y2="348" id="path151" stroke="#CCCCCC" stroke-linecap="round" transform="translate(827.000000, 342.666667) scale(-1, 1) rotate(-180.000000) translate(-827.000000, -342.666667) "></line>
                <line x1="859" y1="351.999996" x2="859" y2="333.33333" id="path152" stroke="#CCCCCC" stroke-linecap="round" transform="translate(859.000000, 342.666663) scale(-1, 1) rotate(-180.000000) translate(-859.000000, -342.666663) "></line>
                <line x1="851" y1="347.999996" x2="867" y2="337.33333" id="path153" stroke="#CCCCCC" stroke-linecap="round" transform="translate(859.000000, 342.666663) scale(-1, 1) rotate(-180.000000) translate(-859.000000, -342.666663) "></line>
                <line x1="851" y1="337.333334" x2="867" y2="348" id="path154" stroke="#CCCCCC" stroke-linecap="round" transform="translate(859.000000, 342.666667) scale(-1, 1) rotate(-180.000000) translate(-859.000000, -342.666667) "></line>
            </g>
        </g>
    </g>
</svg>