<?xml version="1.0" encoding="UTF-8"?>
<svg width="150px" height="150px" viewBox="0 0 150 150" version="1.1" xmlns="http://www.w3.org/2000/svg" xmlns:xlink="http://www.w3.org/1999/xlink">
    <title>13n</title>
    <g id="Page-1" stroke="none" stroke-width="1" fill="none" fill-rule="evenodd" stroke-linecap="round" stroke-linejoin="round">
        <g id="Artboard" transform="translate(-1163.000000, -517.000000)" stroke-width="5.3333332">
            <g id="layer-MC1" transform="translate(149.000000, 80.000000)">
                <path d="M1128.2192,462.59698 C1114.9232,466.927646 1107.64587,481.243646 1111.96587,494.572979 C1114.76853,503.219645 1121.76987,509.299645 1129.9672,511.340978 C1122.95387,512.918312 1115.3712,512.148978 1108.46587,508.622312 C1092.7312,500.584979 1086.47387,481.282312 1094.49253,465.50898 C1102.50987,449.735647 1121.76587,443.463647 1137.50053,451.50098 C1144.40587,455.027646 1149.48453,460.72498 1152.33387,467.339646 C1145.8672,461.891646 1136.84453,459.787646 1128.2192,462.59698" id="path125" stroke="#FFB400" fill="#FFD73C" fill-rule="nonzero" transform="translate(1121.666892, 480.060755) scale(-1, 1) rotate(-180.000000) translate(-1121.666892, -480.060755) "></path>
                <path d="M1107,525.333333 C1106.93733,525.333333 1106.87733,525.324 1106.81467,525.324 C1106.924,526.202666 1107,527.092 1107,528.000001 C1107,539.782666 1097.44933,549.333332 1085.66667,549.333332 C1074.724,549.333332 1065.71867,541.090666 1064.48933,530.478666 C1062.228,532.239999 1059.42133,533.333333 1056.33334,533.333333 C1048.96933,533.333333 1043,527.364 1043,520.000001 C1043,519.916 1043.02267,519.84 1043.024,519.756 C1042.148,519.905333 1041.252,520.000001 1040.33334,520.000001 C1031.49734,520.000001 1024.33334,512.836 1024.33334,504.000001 C1024.33334,495.164 1031.49734,488.000001 1040.33334,488.000001 L1107,488.000001 C1117.30933,488.000001 1125.66667,496.357334 1125.66667,506.666667 C1125.66667,516.976 1117.30933,525.333333 1107,525.333333" id="path126" stroke="#8C8C8C" fill="#FFFFFF" fill-rule="nonzero" transform="translate(1075.000001, 518.666667) scale(-1, 1) rotate(-180.000000) translate(-1075.000001, -518.666667) "></path>
                <line x1="1056.3333" y1="575.999996" x2="1056.3333" y2="557.33333" id="path127" stroke="#CCCCCC" transform="translate(1056.333300, 566.666663) scale(-1, 1) rotate(-180.000000) translate(-1056.333300, -566.666663) "></line>
                <line x1="1048.3333" y1="571.999996" x2="1064.3333" y2="561.33333" id="path128" stroke="#CCCCCC" transform="translate(1056.333300, 566.666663) scale(-1, 1) rotate(-180.000000) translate(-1056.333300, -566.666663) "></line>
                <line x1="1048.3333" y1="561.333334" x2="1064.3333" y2="572" id="path129" stroke="#CCCCCC" transform="translate(1056.333300, 566.666667) scale(-1, 1) rotate(-180.000000) translate(-1056.333300, -566.666667) "></line>
                <line x1="1088.3333" y1="575.999996" x2="1088.3333" y2="557.33333" id="path130" stroke="#CCCCCC" transform="translate(1088.333300, 566.666663) scale(-1, 1) rotate(-180.000000) translate(-1088.333300, -566.666663) "></line>
                <line x1="1080.3333" y1="571.999996" x2="1096.3333" y2="561.33333" id="path131" stroke="#CCCCCC" transform="translate(1088.333300, 566.666663) scale(-1, 1) rotate(-180.000000) translate(-1088.333300, -566.666663) "></line>
                <line x1="1080.3333" y1="561.333334" x2="1096.3333" y2="572" id="path132" stroke="#CCCCCC" transform="translate(1088.333300, 566.666667) scale(-1, 1) rotate(-180.000000) translate(-1088.333300, -566.666667) "></line>
            </g>
        </g>
    </g>
</svg>