<?xml version="1.0" encoding="UTF-8"?>
<svg width="150px" height="150px" viewBox="0 0 150 150" version="1.1" xmlns="http://www.w3.org/2000/svg" xmlns:xlink="http://www.w3.org/1999/xlink">
    <title>50</title>
    <g id="Page-1" stroke="none" stroke-width="1" fill="none" fill-rule="evenodd" stroke-linecap="round" stroke-linejoin="round">
        <g id="Artboard" transform="translate(-139.000000, -741.000000)" stroke="#8C8C8C" stroke-width="5.3333332">
            <g id="layer-MC1" transform="translate(149.000000, 80.000000)">
                <line x1="11" y1="696" x2="88.3333314" y2="696" id="path60" transform="translate(49.666666, 696.000000) scale(-1, 1) rotate(-180.000000) translate(-49.666666, -696.000000) "></line>
                <line x1="99" y1="696" x2="128.333333" y2="696" id="path61" transform="translate(113.666666, 696.000000) scale(-1, 1) rotate(-180.000000) translate(-113.666666, -696.000000) "></line>
                <line x1="5.66667" y1="712" x2="53.6666688" y2="712" id="path62" transform="translate(29.666669, 712.000000) scale(-1, 1) rotate(-180.000000) translate(-29.666669, -712.000000) "></line>
                <line x1="64.33333" y1="712" x2="122.999995" y2="712" id="path63" transform="translate(93.666663, 712.000000) scale(-1, 1) rotate(-180.000000) translate(-93.666663, -712.000000) "></line>
                <line x1="0.33333" y1="728" x2="117.66666" y2="728" id="path64" transform="translate(58.999995, 728.000000) scale(-1, 1) rotate(-180.000000) translate(-58.999995, -728.000000) "></line>
                <line x1="11" y1="760" x2="128.33333" y2="760" id="path65" transform="translate(69.666665, 760.000000) scale(-1, 1) rotate(-180.000000) translate(-69.666665, -760.000000) "></line>
                <line x1="5.66667" y1="744" x2="37.6666692" y2="744" id="path66" transform="translate(21.666670, 744.000000) scale(-1, 1) rotate(-180.000000) translate(-21.666670, -744.000000) "></line>
                <line x1="48.33333" y1="744" x2="122.999995" y2="744" id="path67" transform="translate(85.666662, 744.000000) scale(-1, 1) rotate(-180.000000) translate(-85.666662, -744.000000) "></line>
                <line x1="5.66667" y1="776" x2="72.333335" y2="776" id="path68" transform="translate(39.000003, 776.000000) scale(-1, 1) rotate(-180.000000) translate(-39.000003, -776.000000) "></line>
                <line x1="83" y1="776" x2="122.999999" y2="776" id="path69" transform="translate(103.000000, 776.000000) scale(-1, 1) rotate(-180.000000) translate(-103.000000, -776.000000) "></line>
            </g>
        </g>
    </g>
</svg>