<?xml version="1.0" encoding="UTF-8"?>
<svg width="150px" height="150px" viewBox="0 0 150 150" version="1.1" xmlns="http://www.w3.org/2000/svg" xmlns:xlink="http://www.w3.org/1999/xlink">
    <title>Rectangle</title>
    <g id="Page-1" stroke="none" stroke-width="1" fill="none" fill-rule="evenodd" stroke-linecap="round" stroke-linejoin="round">
        <g id="Artboard" transform="translate(-395.000000, -741.000000)" stroke="#808080" stroke-width="5.3333332">
            <g id="layer-MC1" transform="translate(149.000000, 80.000000)">
                <path d="M341.66667,714.66667 C341.66667,726.449336 351.217336,736.000003 363.000003,736.000003 C374.782669,736.000003 384.333339,726.449336 384.333339,714.66667 C384.333339,702.884004 374.782669,693.333337 363.000003,693.333337 L256.333339,693.333337" id="path30" transform="translate(320.333337, 714.666670) scale(-1, 1) rotate(-180.000000) translate(-320.333337, -714.666670) "></path>
                <path d="M301.66667,712 C301.66667,719.364 307.636003,725.333333 315.000003,725.333333 C322.364003,725.333333 328.333338,719.364 328.333338,712 C328.333338,704.636 322.364003,698.666667 315.000003,698.666667 L264.333338,698.666667" id="path31" transform="translate(296.333337, 712.000000) scale(-1, 1) rotate(-180.000000) translate(-296.333337, -712.000000) "></path>
                <path d="M320.333331,762.66667 C320.333331,753.83067 327.49733,746.66667 336.333331,746.66667 C345.169329,746.66667 352.333331,753.83067 352.333331,762.66667 C352.333331,771.50267 345.169329,778.66667 336.333331,778.66667 L264.333331,778.66667" id="path32" transform="translate(308.333330, 762.666670) scale(-1, 1) rotate(-180.000000) translate(-308.333330, -762.666670) "></path>
            </g>
        </g>
    </g>
</svg>