<?xml version="1.0" encoding="UTF-8"?>
<svg width="96px" height="96px" viewBox="0 0 96 96" version="1.1" xmlns="http://www.w3.org/2000/svg" xmlns:xlink="http://www.w3.org/1999/xlink">
    <title>weerstation</title>
    <g id="Page-1" stroke="none" stroke-width="1" fill="none" fill-rule="evenodd">
        <g id="Artboard" transform="translate(-678.000000, -768.000000)">
            <g id="layer-MC1" transform="translate(149.000000, 80.000000)">
                <path d="M576.33333,734.567597 L576.33333,759.999596 C576.33333,765.890263 571.55733,770.666264 565.666664,770.666264 C559.775997,770.666264 554.999997,765.890263 554.999997,759.999596 L554.999997,734.567597 C551.733331,731.638264 549.666664,727.398264 549.666664,722.666264 C549.666664,713.828931 556.830664,706.666264 565.666664,706.666264 C574.502663,706.666264 581.666664,713.828931 581.666664,722.666264 C581.666664,727.398264 579.599997,731.638264 576.33333,734.567597" id="path2" stroke="#BEBEBE" stroke-width="1.3333333" fill="#FFFFFF" fill-rule="nonzero" transform="translate(565.666664, 738.666263) scale(-1, 1) rotate(-180.000000) translate(-565.666664, -738.666263) "></path>
                <path d="M576.33333,734.567597 L576.33333,759.999596 C576.33333,765.890263 571.55733,770.666264 565.666664,770.666264 C559.775997,770.666264 554.999997,765.890263 554.999997,759.999596 L554.999997,734.567597 C551.733331,731.638264 549.666664,727.398264 549.666664,722.666264 C549.666664,713.828931 556.830664,706.666264 565.666664,706.666264 C574.502663,706.666264 581.666664,713.828931 581.666664,722.666264 C581.666664,727.398264 579.599997,731.638264 576.33333,734.567597 Z" id="path3" stroke="#BEBEBE" stroke-width="5.3333332" stroke-linejoin="round" transform="translate(565.666664, 738.666263) scale(-1, 1) rotate(-180.000000) translate(-565.666664, -738.666263) "></path>
                <line x1="589.66667" y1="717.33333" x2="603.000003" y2="717.33333" id="path70" stroke="#BEBEBE" stroke-width="5.3333332" stroke-linecap="round" stroke-linejoin="round" transform="translate(596.333336, 717.333330) scale(-1, 1) rotate(-180.000000) translate(-596.333336, -717.333330) "></line>
                <line x1="589.66667" y1="728" x2="603.000003" y2="728" id="path71" stroke="#BEBEBE" stroke-width="5.3333332" stroke-linecap="round" stroke-linejoin="round" transform="translate(596.333336, 728.000000) scale(-1, 1) rotate(-180.000000) translate(-596.333336, -728.000000) "></line>
                <line x1="589.66667" y1="738.66667" x2="603.000003" y2="738.66667" id="path72" stroke="#BEBEBE" stroke-width="5.3333332" stroke-linecap="round" stroke-linejoin="round" transform="translate(596.333336, 738.666670) scale(-1, 1) rotate(-180.000000) translate(-596.333336, -738.666670) "></line>
                <path d="M568.33333,746.201063 L568.33333,762.666397 L562.999997,762.666397 L562.999997,746.201063 C559.894664,745.101063 557.666664,742.14773 557.666664,738.666397 C557.666664,734.24773 561.247997,730.666397 565.666664,730.666397 C570.08533,730.666397 573.666664,734.24773 573.666664,738.666397 C573.666664,742.14773 571.438663,745.101063 568.33333,746.201063" id="path155" fill="#008C3B" fill-rule="nonzero" transform="translate(565.666663, 746.666397) scale(-1, 1) rotate(-180.000000) translate(-565.666663, -746.666397) "></path>
                <path d="M565.66667,730.666663 C564.193337,730.666663 563.000003,729.47333 563.000003,727.999996 L563.000003,713.33333 L568.333337,713.33333 L568.333337,727.999996 C568.333337,729.47333 567.140003,730.666663 565.66667,730.666663" id="path156" fill="#82BA26" fill-rule="nonzero" transform="translate(565.666670, 721.999996) scale(-1, 1) rotate(-180.000000) translate(-565.666670, -721.999996) "></path>
            </g>
        </g>
    </g>
</svg>