<?xml version="1.0" encoding="UTF-8" standalone="no"?>
<svg width="446px" height="403px" viewBox="0 0 446 403" version="1.1" xmlns="http://www.w3.org/2000/svg" xmlns:xlink="http://www.w3.org/1999/xlink">
    <!-- Generator: Sketch 3.8.3 (29802) - http://www.bohemiancoding.com/sketch -->
    <title>vorm</title>
    <desc>Created with Sketch.</desc>
    <defs></defs>
    <g id="Page-1" stroke="none" stroke-width="1" fill="none" fill-rule="evenodd">
        <g id="vorm" transform="translate(1.000000, 1.000000)" fill="#04C104">
            <path d="M351.55,1.39 C365.17,-1.27 379.51,-0.98 392.79,3.25 C408.66,8.08 423.7,16.74 434.53,29.48 C437.77,33.35 441.57,36.69 445,40.38 L445,60.73 C439.34,53.13 435.15,44.38 428.29,37.71 C423.74,33.25 419.43,28.47 414.17,24.81 C398.88,13.42 379.2,8.22 360.26,10.3 C350.46,11.64 340.78,13.78 331.2,16.19 C306.79,21.61 283.03,29.45 259.36,37.41 C225.69,49.81 192.55,63.83 160.98,80.95 C118.43,103.84 77.95,130.78 41.32,162.32 C33.75,168.75 26.8,175.93 20.99,183.99 C12.56,196.72 7.89,212.68 11.12,227.86 C13.22,241.91 20.75,254.47 29.95,265.04 C35.09,271.63 42.01,276.39 48.53,281.47 C77.01,303.68 106.65,324.33 136.8,344.21 C159.77,358.83 182.82,373.39 206.91,386.13 C216.58,391.93 227.28,395.84 236.74,402 L212.46,402 C209.34,399.98 206.41,397.67 203.18,395.83 C186.58,386.54 169.91,377.36 153.8,367.21 C149.06,364.25 144.41,361.09 139.34,358.71 C132.95,355.75 127.75,350.89 121.78,347.23 C103.64,335.55 86.39,322.56 68.62,310.34 C54,297.21 36.59,287.34 23.27,272.74 C10.94,259.26 2.27,242.12 0.05,223.9 C-1.66,207.86 4.01,191.94 12.58,178.6 C20.18,167.1 30.45,157.74 41,149.01 C49.85,141.81 58.76,134.69 67.97,127.96 C90.92,110.32 115.46,94.89 140.53,80.49 C206.31,43.66 277.49,15.98 351.55,1.39 L351.55,1.39 Z" id="Shape"></path>
        </g>
    </g>
</svg>